Coordinates
version=1
nRows=13
nColumns=38
inDegrees=no

Units are S.I. units (second, meters, Newtons, ...)
If the header above contains a line with 'inDegrees', this indicates whether rotational values are in degrees (yes) or radians (no).

endheader
time	pelvis_tilt	pelvis_list	pelvis_rotation	pelvis_tx	pelvis_ty	pelvis_tz	hip_flexion_r	hip_adduction_r	hip_rotation_r	knee_angle_r	ankle_angle_r	subtalar_angle_r	mtp_angle_r	hip_flexion_l	hip_adduction_l	hip_rotation_l	knee_angle_l	ankle_angle_l	subtalar_angle_l	mtp_angle_l	lumbar_extension	lumbar_bending	lumbar_rotation	arm_flex_r	arm_add_r	arm_rot_r	elbow_flex_r	pro_sup_r	wrist_flex_r	wrist_dev_r	arm_flex_l	arm_add_l	arm_rot_l	elbow_flex_l	pro_sup_l	wrist_flex_l	wrist_dev_l
0	-2.99125	1.34863	1.35114	0.750812	1.53649	1.04862	0.448157	-0.0895791	-0.109847	1.04029	-0.232604	0	0	0.252781	-0.0269642	-0.306863	0.243854	-0.152335	0	0	0.113953	-0.0189409	0.0140829	-0.0552971	-0.23588	0.356999	0.518935	1.5708	0	0	-0.127048	-0.313425	0.323627	0.632731	1.18936	0	0
0.01	-2.97218	1.33804	1.33325	0.751223	1.52663	1.04998	0.476555	-0.065197	-0.0790385	1.01862	-0.210255	0	0	0.248709	-0.0315541	-0.295102	0.235913	-0.155782	0	0	0.126047	-0.0106783	0.0137911	-0.0609688	-0.232409	0.346381	0.507288	1.5708	0	0	-0.117689	-0.317238	0.324638	0.648026	1.18853	0	0
0.02	-2.94938	1.33403	1.31355	0.751799	1.51544	1.05156	0.494246	-0.0542711	-0.0780095	0.992229	-0.190659	0	0	0.235681	-0.0363731	-0.293073	0.227727	-0.158522	0	0	0.130019	-0.00256191	0.00789332	-0.0661212	-0.230335	0.339145	0.49844	1.5708	0	0	-0.112413	-0.320773	0.320025	0.665831	1.19098	0	0
0.03	-2.926	1.32983	1.29466	0.752457	1.50415	1.05293	0.510015	-0.0444357	-0.0811011	0.960798	-0.171311	0	0	0.222825	-0.0417788	-0.297119	0.219783	-0.161614	0	0	0.133561	0.00582926	-0.000406947	-0.070185	-0.228213	0.33304	0.488788	1.5708	0	0	-0.10858	-0.323747	0.311575	0.684279	1.19709	0	0
0.04	-2.90451	1.32476	1.27912	0.753244	1.49289	1.05399	0.524825	-0.035533	-0.0859043	0.924382	-0.154591	0	0	0.210865	-0.0469478	-0.302951	0.211205	-0.165673	0	0	0.137905	0.0139698	-0.0100772	-0.0735842	-0.225988	0.328104	0.478153	1.5708	0	0	-0.105002	-0.326239	0.30133	0.702703	1.20746	0	0
0.05	-2.88112	1.32151	1.26269	0.754049	1.48153	1.05496	0.535326	-0.0269986	-0.0916606	0.882945	-0.140922	0	0	0.195892	-0.0512805	-0.303029	0.200551	-0.169434	0	0	0.139987	0.0218675	-0.0205888	-0.0764929	-0.223515	0.321775	0.467587	1.5708	0	0	-0.100938	-0.328151	0.290595	0.720352	1.21892	0	0
0.06	-2.85403	1.32033	1.24374	0.755017	1.47032	1.05561	0.541852	-0.0190149	-0.0990837	0.837831	-0.130326	0	0	0.178896	-0.0559001	-0.303533	0.190783	-0.171998	0	0	0.141389	0.0332654	-0.0364647	-0.0803881	-0.224939	0.317034	0.464218	1.5708	0	0	-0.0968231	-0.327455	0.280286	0.732407	1.22715	0	0
0.07	-2.83729	1.31719	1.23454	0.755744	1.45901	1.05603	0.548961	-0.0120787	-0.104543	0.786752	-0.123822	0	0	0.164619	-0.0590565	-0.306234	0.180892	-0.175169	0	0	0.1426	0.0387172	-0.0441882	-0.0842429	-0.222049	0.308729	0.45463	1.5708	0	0	-0.0901633	-0.329472	0.272697	0.749244	1.23598	0	0
0.08	-2.82475	1.31365	1.22944	0.756442	1.44766	1.05606	0.55465	-0.00589911	-0.110045	0.730123	-0.121175	0	0	0.151392	-0.0616269	-0.309715	0.172038	-0.177176	0	0	0.14469	0.0433202	-0.0511349	-0.0884392	-0.218489	0.296939	0.445006	1.5708	0	0	-0.0833446	-0.331915	0.266394	0.765734	1.24513	0	0
0.09	-2.81838	1.30968	1.22979	0.757063	1.43624	1.05567	0.55924	-0.000470203	-0.115101	0.668096	-0.122827	0	0	0.139483	-0.0633539	-0.316202	0.164538	-0.177822	0	0	0.147844	0.0465822	-0.0570404	-0.0929549	-0.214705	0.284632	0.435862	1.5708	0	0	-0.0765876	-0.334708	0.261188	0.781766	1.25518	0	0
0.1	-2.81403	1.30701	1.23146	0.757526	1.42459	1.05503	0.560163	0.00483093	-0.119573	0.600155	-0.128724	0	0	0.126023	-0.0643984	-0.321971	0.157261	-0.177511	0	0	0.150277	0.0487357	-0.0621506	-0.0972917	-0.211187	0.276475	0.426736	1.5708	0	0	-0.0694581	-0.33768	0.257521	0.796307	1.26571	0	0
0.11	-2.80624	1.307	1.23207	0.758098	1.41283	1.05423	0.555568	0.00907924	-0.125623	0.526807	-0.140453	0	0	0.110063	-0.0654481	-0.324702	0.150819	-0.176725	0	0	0.149487	0.0502857	-0.0694437	-0.100404	-0.207836	0.271403	0.417413	1.5708	0	0	-0.0616608	-0.340497	0.253698	0.810113	1.27699	0	0
0.12	-2.80065	1.30713	1.23607	0.758744	1.40108	1.053	0.549649	0.0118864	-0.134431	0.450112	-0.156817	0	0	0.094824	-0.0660441	-0.325533	0.145386	-0.174807	0	0	0.148878	0.0509388	-0.0779727	-0.103042	-0.204863	0.269263	0.40838	1.5708	0	0	-0.0538544	-0.343381	0.250485	0.823275	1.28634	0	0
